<svg width="210" height="42" viewBox="0 0 210 42" fill="none" xmlns="http://www.w3.org/2000/svg">
<path d="M70.7725 7.43623C72.5005 7.43623 74.0365 7.76023 75.3805 8.40823C76.7245 9.05623 77.8525 9.96823 78.7645 11.1442C79.7005 12.2962 80.3965 13.6402 80.8525 15.1762C81.3325 16.6882 81.5725 18.3082 81.5725 20.0362C81.5725 22.3642 81.1525 24.4882 80.3125 26.4082C79.4725 28.3042 78.2485 29.8162 76.6405 30.9442C75.0565 32.0722 73.1005 32.6362 70.7725 32.6362H62.1685C61.5445 32.6362 61.0165 32.4322 60.5845 32.0242C60.1765 31.5922 59.9725 31.0642 59.9725 30.4402V9.63223C59.9725 9.00823 60.1765 8.49223 60.5845 8.08423C61.0165 7.65223 61.5445 7.43623 62.1685 7.43623H70.7725ZM70.4125 28.4962C71.9245 28.4962 73.1605 28.1122 74.1205 27.3442C75.0805 26.5522 75.7765 25.5202 76.2085 24.2482C76.6645 22.9522 76.8925 21.5482 76.8925 20.0362C76.8925 18.9082 76.7605 17.8402 76.4965 16.8322C76.2565 15.8002 75.8725 14.9002 75.3445 14.1322C74.8165 13.3402 74.1445 12.7162 73.3285 12.2602C72.5125 11.8042 71.5405 11.5762 70.4125 11.5762H64.1125L64.4725 11.2522V28.8922L64.2565 28.4962H70.4125ZM89.4148 30.4402C89.4148 31.0642 89.2108 31.5922 88.8028 32.0242C88.3948 32.4322 87.8788 32.6362 87.2548 32.6362C86.6308 32.6362 86.1148 32.4322 85.7068 32.0242C85.2988 31.5922 85.0948 31.0642 85.0948 30.4402V15.5722C85.0948 14.9482 85.2988 14.4322 85.7068 14.0242C86.1148 13.5922 86.6308 13.3762 87.2548 13.3762C87.8788 13.3762 88.3948 13.5922 88.8028 14.0242C89.2108 14.4322 89.4148 14.9482 89.4148 15.5722V30.4402ZM87.2188 11.0362C86.4028 11.0362 85.8268 10.9042 85.4908 10.6402C85.1548 10.3762 84.9868 9.90823 84.9868 9.23623V8.55223C84.9868 7.85623 85.1668 7.38823 85.5268 7.14823C85.9108 6.88423 86.4868 6.75223 87.2548 6.75223C88.0948 6.75223 88.6828 6.88423 89.0188 7.14823C89.3548 7.41223 89.5228 7.88023 89.5228 8.55223V9.23623C89.5228 9.93223 89.3428 10.4122 88.9828 10.6762C88.6228 10.9162 88.0348 11.0362 87.2188 11.0362ZM101.847 13.0162C102.855 13.0162 103.779 13.1722 104.619 13.4842C105.459 13.7962 106.179 14.1922 106.779 14.6722C107.403 15.1522 107.883 15.6442 108.219 16.1482C108.579 16.6282 108.759 17.0362 108.759 17.3722L107.823 17.8402V15.2122C107.823 14.5882 108.027 14.0722 108.435 13.6642C108.843 13.2322 109.359 13.0162 109.983 13.0162C110.607 13.0162 111.123 13.2202 111.531 13.6282C111.939 14.0362 112.143 14.5642 112.143 15.2122V31.2322C112.143 33.3202 111.687 34.9882 110.775 36.2362C109.887 37.5082 108.711 38.4202 107.247 38.9722C105.783 39.5482 104.211 39.8362 102.531 39.8362C102.051 39.8362 101.427 39.7762 100.659 39.6562C99.8906 39.5362 99.1586 39.3922 98.4626 39.2242C97.7666 39.0562 97.2386 38.9002 96.8786 38.7562C96.1586 38.4442 95.6546 38.0482 95.3666 37.5682C95.1026 37.1122 95.0546 36.6202 95.2226 36.0922C95.4386 35.3962 95.7866 34.9162 96.2666 34.6522C96.7466 34.4122 97.2506 34.3882 97.7786 34.5802C98.0186 34.6522 98.4146 34.7962 98.9666 35.0122C99.5186 35.2282 100.119 35.4202 100.767 35.5882C101.439 35.7802 102.027 35.8762 102.531 35.8762C104.331 35.8762 105.663 35.5162 106.527 34.7962C107.391 34.0762 107.823 33.0802 107.823 31.8082V28.6762L108.255 29.0002C108.255 29.3122 108.087 29.6962 107.751 30.1522C107.439 30.5842 106.995 31.0162 106.419 31.4482C105.867 31.8802 105.207 32.2522 104.439 32.5642C103.671 32.8522 102.855 32.9962 101.991 32.9962C100.287 32.9962 98.7506 32.5762 97.3826 31.7362C96.0146 30.8722 94.9346 29.6962 94.1426 28.2082C93.3506 26.6962 92.9546 24.9682 92.9546 23.0242C92.9546 21.0562 93.3506 19.3282 94.1426 17.8402C94.9346 16.3282 96.0026 15.1522 97.3466 14.3122C98.6906 13.4482 100.191 13.0162 101.847 13.0162ZM102.531 16.9762C101.451 16.9762 100.503 17.2402 99.6866 17.7682C98.8706 18.2962 98.2346 19.0162 97.7786 19.9282C97.3226 20.8402 97.0946 21.8722 97.0946 23.0242C97.0946 24.1522 97.3226 25.1722 97.7786 26.0842C98.2346 26.9962 98.8706 27.7162 99.6866 28.2442C100.503 28.7722 101.451 29.0362 102.531 29.0362C103.635 29.0362 104.595 28.7722 105.411 28.2442C106.227 27.7162 106.863 26.9962 107.319 26.0842C107.775 25.1722 108.003 24.1522 108.003 23.0242C108.003 21.8722 107.775 20.8402 107.319 19.9282C106.863 19.0162 106.227 18.2962 105.411 17.7682C104.595 17.2402 103.635 16.9762 102.531 16.9762ZM120.88 30.4402C120.88 31.0642 120.676 31.5922 120.268 32.0242C119.86 32.4322 119.344 32.6362 118.72 32.6362C118.096 32.6362 117.58 32.4322 117.172 32.0242C116.764 31.5922 116.56 31.0642 116.56 30.4402V15.5722C116.56 14.9482 116.764 14.4322 117.172 14.0242C117.58 13.5922 118.096 13.3762 118.72 13.3762C119.344 13.3762 119.86 13.5922 120.268 14.0242C120.676 14.4322 120.88 14.9482 120.88 15.5722V30.4402ZM118.684 11.0362C117.868 11.0362 117.292 10.9042 116.956 10.6402C116.62 10.3762 116.452 9.90823 116.452 9.23623V8.55223C116.452 7.85623 116.632 7.38823 116.992 7.14823C117.376 6.88423 117.952 6.75223 118.72 6.75223C119.56 6.75223 120.148 6.88423 120.484 7.14823C120.82 7.41223 120.988 7.88023 120.988 8.55223V9.23623C120.988 9.93223 120.808 10.4122 120.448 10.6762C120.088 10.9162 119.5 11.0362 118.684 11.0362ZM143.319 8.66023C143.943 8.97223 144.303 9.46423 144.399 10.1362C144.519 10.8082 144.351 11.4202 143.895 11.9722C143.583 12.4042 143.175 12.6442 142.671 12.6922C142.191 12.7402 141.699 12.6442 141.195 12.4042C140.619 12.1402 140.007 11.9362 139.359 11.7922C138.735 11.6482 138.075 11.5762 137.379 11.5762C136.083 11.5762 134.919 11.7802 133.887 12.1882C132.879 12.5962 132.015 13.1842 131.295 13.9522C130.575 14.6962 130.023 15.5842 129.639 16.6162C129.279 17.6482 129.099 18.7882 129.099 20.0362C129.099 21.5002 129.303 22.7722 129.711 23.8522C130.143 24.9322 130.731 25.8322 131.475 26.5522C132.219 27.2722 133.095 27.8122 134.103 28.1722C135.111 28.5082 136.203 28.6762 137.379 28.6762C138.027 28.6762 138.675 28.6162 139.323 28.4962C139.971 28.3762 140.595 28.1602 141.195 27.8482C141.699 27.6082 142.191 27.5242 142.671 27.5962C143.175 27.6682 143.595 27.9202 143.931 28.3522C144.411 28.9522 144.579 29.5762 144.435 30.2242C144.315 30.8482 143.955 31.3042 143.355 31.5922C142.731 31.9042 142.083 32.1682 141.411 32.3842C140.763 32.5762 140.103 32.7202 139.431 32.8162C138.759 32.9362 138.075 32.9962 137.379 32.9962C135.651 32.9962 134.007 32.7202 132.447 32.1682C130.911 31.6162 129.531 30.8002 128.307 29.7202C127.107 28.6402 126.159 27.2962 125.463 25.6882C124.767 24.0562 124.419 22.1722 124.419 20.0362C124.419 18.1882 124.731 16.4842 125.355 14.9242C126.003 13.3642 126.903 12.0202 128.055 10.8922C129.231 9.74023 130.611 8.85223 132.195 8.22823C133.779 7.58023 135.507 7.25623 137.379 7.25623C138.435 7.25623 139.467 7.37623 140.475 7.61623C141.483 7.85623 142.431 8.20423 143.319 8.66023ZM166.574 23.0242C166.574 24.9922 166.13 26.7322 165.242 28.2442C164.378 29.7322 163.202 30.8962 161.714 31.7362C160.25 32.5762 158.606 32.9962 156.782 32.9962C154.958 32.9962 153.302 32.5762 151.814 31.7362C150.35 30.8962 149.174 29.7322 148.286 28.2442C147.422 26.7322 146.99 24.9922 146.99 23.0242C146.99 21.0562 147.422 19.3282 148.286 17.8402C149.174 16.3282 150.35 15.1522 151.814 14.3122C153.302 13.4482 154.958 13.0162 156.782 13.0162C158.606 13.0162 160.25 13.4482 161.714 14.3122C163.202 15.1522 164.378 16.3282 165.242 17.8402C166.13 19.3282 166.574 21.0562 166.574 23.0242ZM162.254 23.0242C162.254 21.8002 162.002 20.7442 161.498 19.8562C161.018 18.9442 160.358 18.2362 159.518 17.7322C158.702 17.2282 157.79 16.9762 156.782 16.9762C155.774 16.9762 154.85 17.2282 154.01 17.7322C153.194 18.2362 152.534 18.9442 152.03 19.8562C151.55 20.7442 151.31 21.8002 151.31 23.0242C151.31 24.2242 151.55 25.2802 152.03 26.1922C152.534 27.0802 153.194 27.7762 154.01 28.2802C154.85 28.7842 155.774 29.0362 156.782 29.0362C157.79 29.0362 158.702 28.7842 159.518 28.2802C160.358 27.7762 161.018 27.0802 161.498 26.1922C162.002 25.2802 162.254 24.2242 162.254 23.0242ZM171.043 13.3762C171.499 13.3762 171.919 13.4962 172.303 13.7362C172.687 13.9522 172.975 14.2882 173.167 14.7442L178.459 26.8402L177.667 27.2002L183.067 14.7802C183.475 13.8202 184.111 13.3642 184.975 13.4122C185.575 13.4122 186.055 13.6042 186.415 13.9882C186.799 14.3482 186.991 14.8042 186.991 15.3562C186.991 15.5242 186.955 15.7042 186.883 15.8962C186.835 16.0882 186.775 16.2682 186.703 16.4362L179.971 31.2682C179.587 32.1322 178.975 32.5882 178.135 32.6362C177.679 32.7082 177.235 32.6242 176.803 32.3842C176.395 32.1442 176.083 31.7722 175.867 31.2682L169.171 16.4362C169.123 16.3162 169.063 16.1602 168.991 15.9682C168.943 15.7762 168.919 15.5482 168.919 15.2842C168.919 14.8522 169.111 14.4322 169.495 14.0242C169.879 13.5922 170.395 13.3762 171.043 13.3762ZM199.29 32.9962C197.25 32.9962 195.474 32.5762 193.962 31.7362C192.474 30.8722 191.322 29.7082 190.506 28.2442C189.714 26.7802 189.318 25.1242 189.318 23.2762C189.318 21.1162 189.75 19.2802 190.614 17.7682C191.502 16.2322 192.654 15.0562 194.07 14.2402C195.486 13.4242 196.986 13.0162 198.57 13.0162C199.794 13.0162 200.946 13.2682 202.026 13.7722C203.13 14.2762 204.102 14.9722 204.942 15.8602C205.782 16.7242 206.442 17.7322 206.922 18.8842C207.426 20.0362 207.678 21.2602 207.678 22.5562C207.654 23.1322 207.426 23.6002 206.994 23.9602C206.562 24.3202 206.058 24.5002 205.482 24.5002H191.73L190.65 20.9002H203.862L203.07 21.6202V20.6482C203.022 19.9522 202.77 19.3282 202.314 18.7762C201.882 18.2242 201.33 17.7922 200.658 17.4802C200.01 17.1442 199.314 16.9762 198.57 16.9762C197.85 16.9762 197.178 17.0722 196.554 17.2642C195.93 17.4562 195.39 17.7802 194.934 18.2362C194.478 18.6922 194.118 19.3042 193.854 20.0722C193.59 20.8402 193.458 21.8122 193.458 22.9882C193.458 24.2842 193.722 25.3882 194.25 26.3002C194.802 27.1882 195.498 27.8722 196.338 28.3522C197.202 28.8082 198.114 29.0362 199.074 29.0362C199.962 29.0362 200.67 28.9642 201.198 28.8202C201.726 28.6762 202.146 28.5082 202.458 28.3162C202.794 28.1002 203.094 27.9202 203.358 27.7762C203.79 27.5602 204.198 27.4522 204.582 27.4522C205.11 27.4522 205.542 27.6322 205.878 27.9922C206.238 28.3522 206.418 28.7722 206.418 29.2522C206.418 29.9002 206.082 30.4882 205.41 31.0162C204.786 31.5442 203.91 32.0122 202.782 32.4202C201.654 32.8042 200.49 32.9962 199.29 32.9962Z" fill="#FDFDFD"/>
<path d="M33.6 0H8.4C3.76081 0 0 3.76081 0 8.4V33.6C0 38.2392 3.76081 42 8.4 42H33.6C38.2392 42 42 38.2392 42 33.6V8.4C42 3.76081 38.2392 0 33.6 0Z" fill="#02DFBF"/>
<path d="M25.2707 21.0639C25.2707 15.7954 24.0325 13.5098 20.6053 13.5098H16.6699V28.4903H20.7019C24.0644 28.4903 25.2707 26.2685 25.2707 21.0639Z" fill="url(#paint0_linear_14_5943)"/>
<path d="M42.0014 24.5441V33.6001C42.0014 35.8279 41.1164 37.9645 39.5411 39.5398C37.9658 41.1151 35.8292 42.0001 33.6014 42.0001H19.7708L10.9004 33.1297C10.9726 33.1809 11.0894 33.2036 11.2734 33.2196C14.3814 33.4716 17.4625 33.6001 20.6998 33.6001C28.317 33.6001 31.2049 29.8865 31.2049 21.0639C31.2049 16.4112 30.4186 13.1679 28.5858 11.1284L42.0014 24.5441Z" fill="url(#paint1_linear_14_5943)"/>
<path d="M31.2029 21.0637C31.2029 29.8837 28.3149 33.5999 20.6978 33.5999C17.4605 33.5999 14.3819 33.4731 11.2713 33.2194C10.8908 33.1875 10.7959 33.1236 10.7959 32.838V9.22478C10.7959 8.9081 10.8908 8.81234 11.2713 8.78042C14.3793 8.52842 17.4605 8.3999 20.6978 8.3999C28.3149 8.3999 31.2029 12.1446 31.2029 21.0637ZM16.6709 13.5096V28.4902H20.7029C24.0629 28.4902 25.2733 26.2684 25.2733 21.0637C25.2733 15.7953 24.0351 13.5096 20.6079 13.5096H16.6709Z" fill="#FDFDFD"/>
<defs>
<linearGradient id="paint0_linear_14_5943" x1="14.4044" y1="15.7752" x2="24.8843" y2="26.2551" gradientUnits="userSpaceOnUse">
<stop stop-opacity="0.25"/>
<stop offset="1" stop-opacity="0"/>
</linearGradient>
<linearGradient id="paint1_linear_14_5943" x1="18.6637" y1="21.0497" x2="38.3474" y2="40.7334" gradientUnits="userSpaceOnUse">
<stop stop-opacity="0.25"/>
<stop offset="1" stop-opacity="0"/>
</linearGradient>
</defs>
</svg>
