<svg width="210" height="42" viewBox="0 0 210 42" fill="none" xmlns="http://www.w3.org/2000/svg">
<path d="M70.7734 7.43623C72.5014 7.43623 74.0374 7.76023 75.3814 8.40823C76.7254 9.05623 77.8534 9.96823 78.7654 11.1442C79.7014 12.2962 80.3974 13.6402 80.8534 15.1762C81.3334 16.6882 81.5734 18.3082 81.5734 20.0362C81.5734 22.3642 81.1534 24.4882 80.3134 26.4082C79.4734 28.3042 78.2494 29.8162 76.6414 30.9442C75.0574 32.0722 73.1014 32.6362 70.7734 32.6362H62.1694C61.5454 32.6362 61.0174 32.4322 60.5854 32.0242C60.1774 31.5922 59.9734 31.0642 59.9734 30.4402V9.63223C59.9734 9.00823 60.1774 8.49223 60.5854 8.08423C61.0174 7.65223 61.5454 7.43623 62.1694 7.43623H70.7734ZM70.4134 28.4962C71.9254 28.4962 73.1614 28.1122 74.1214 27.3442C75.0814 26.5522 75.7774 25.5202 76.2094 24.2482C76.6654 22.9522 76.8934 21.5482 76.8934 20.0362C76.8934 18.9082 76.7614 17.8402 76.4974 16.8322C76.2574 15.8002 75.8734 14.9002 75.3454 14.1322C74.8174 13.3402 74.1454 12.7162 73.3294 12.2602C72.5134 11.8042 71.5414 11.5762 70.4134 11.5762H64.1134L64.4734 11.2522V28.8922L64.2574 28.4962H70.4134ZM89.4158 30.4402C89.4158 31.0642 89.2118 31.5922 88.8038 32.0242C88.3958 32.4322 87.8798 32.6362 87.2558 32.6362C86.6318 32.6362 86.1158 32.4322 85.7078 32.0242C85.2998 31.5922 85.0958 31.0642 85.0958 30.4402V15.5722C85.0958 14.9482 85.2998 14.4322 85.7078 14.0242C86.1158 13.5922 86.6318 13.3762 87.2558 13.3762C87.8798 13.3762 88.3958 13.5922 88.8038 14.0242C89.2118 14.4322 89.4158 14.9482 89.4158 15.5722V30.4402ZM87.2198 11.0362C86.4038 11.0362 85.8278 10.9042 85.4918 10.6402C85.1558 10.3762 84.9878 9.90823 84.9878 9.23623V8.55223C84.9878 7.85623 85.1678 7.38823 85.5278 7.14823C85.9118 6.88423 86.4878 6.75223 87.2558 6.75223C88.0958 6.75223 88.6838 6.88423 89.0198 7.14823C89.3558 7.41223 89.5238 7.88023 89.5238 8.55223V9.23623C89.5238 9.93223 89.3438 10.4122 88.9838 10.6762C88.6238 10.9162 88.0358 11.0362 87.2198 11.0362ZM101.848 13.0162C102.856 13.0162 103.78 13.1722 104.62 13.4842C105.46 13.7962 106.18 14.1922 106.78 14.6722C107.404 15.1522 107.884 15.6442 108.22 16.1482C108.58 16.6282 108.76 17.0362 108.76 17.3722L107.824 17.8402V15.2122C107.824 14.5882 108.028 14.0722 108.436 13.6642C108.844 13.2322 109.36 13.0162 109.984 13.0162C110.608 13.0162 111.124 13.2202 111.532 13.6282C111.94 14.0362 112.144 14.5642 112.144 15.2122V31.2322C112.144 33.3202 111.688 34.9882 110.776 36.2362C109.888 37.5082 108.712 38.4202 107.248 38.9722C105.784 39.5482 104.212 39.8362 102.532 39.8362C102.052 39.8362 101.428 39.7762 100.66 39.6562C99.8916 39.5362 99.1596 39.3922 98.4636 39.2242C97.7676 39.0562 97.2396 38.9002 96.8796 38.7562C96.1596 38.4442 95.6556 38.0482 95.3676 37.5682C95.1036 37.1122 95.0556 36.6202 95.2236 36.0922C95.4396 35.3962 95.7876 34.9162 96.2676 34.6522C96.7476 34.4122 97.2516 34.3882 97.7796 34.5802C98.0196 34.6522 98.4156 34.7962 98.9676 35.0122C99.5196 35.2282 100.12 35.4202 100.768 35.5882C101.44 35.7802 102.028 35.8762 102.532 35.8762C104.332 35.8762 105.664 35.5162 106.528 34.7962C107.392 34.0762 107.824 33.0802 107.824 31.8082V28.6762L108.256 29.0002C108.256 29.3122 108.088 29.6962 107.752 30.1522C107.44 30.5842 106.996 31.0162 106.42 31.4482C105.868 31.8802 105.208 32.2522 104.44 32.5642C103.672 32.8522 102.856 32.9962 101.992 32.9962C100.288 32.9962 98.7516 32.5762 97.3836 31.7362C96.0156 30.8722 94.9356 29.6962 94.1436 28.2082C93.3516 26.6962 92.9556 24.9682 92.9556 23.0242C92.9556 21.0562 93.3516 19.3282 94.1436 17.8402C94.9356 16.3282 96.0036 15.1522 97.3476 14.3122C98.6916 13.4482 100.192 13.0162 101.848 13.0162ZM102.532 16.9762C101.452 16.9762 100.504 17.2402 99.6876 17.7682C98.8716 18.2962 98.2356 19.0162 97.7796 19.9282C97.3236 20.8402 97.0956 21.8722 97.0956 23.0242C97.0956 24.1522 97.3236 25.1722 97.7796 26.0842C98.2356 26.9962 98.8716 27.7162 99.6876 28.2442C100.504 28.7722 101.452 29.0362 102.532 29.0362C103.636 29.0362 104.596 28.7722 105.412 28.2442C106.228 27.7162 106.864 26.9962 107.32 26.0842C107.776 25.1722 108.004 24.1522 108.004 23.0242C108.004 21.8722 107.776 20.8402 107.32 19.9282C106.864 19.0162 106.228 18.2962 105.412 17.7682C104.596 17.2402 103.636 16.9762 102.532 16.9762ZM120.881 30.4402C120.881 31.0642 120.677 31.5922 120.269 32.0242C119.861 32.4322 119.345 32.6362 118.721 32.6362C118.097 32.6362 117.581 32.4322 117.173 32.0242C116.765 31.5922 116.561 31.0642 116.561 30.4402V15.5722C116.561 14.9482 116.765 14.4322 117.173 14.0242C117.581 13.5922 118.097 13.3762 118.721 13.3762C119.345 13.3762 119.861 13.5922 120.269 14.0242C120.677 14.4322 120.881 14.9482 120.881 15.5722V30.4402ZM118.685 11.0362C117.869 11.0362 117.293 10.9042 116.957 10.6402C116.621 10.3762 116.453 9.90823 116.453 9.23623V8.55223C116.453 7.85623 116.633 7.38823 116.993 7.14823C117.377 6.88423 117.953 6.75223 118.721 6.75223C119.561 6.75223 120.149 6.88423 120.485 7.14823C120.821 7.41223 120.989 7.88023 120.989 8.55223V9.23623C120.989 9.93223 120.809 10.4122 120.449 10.6762C120.089 10.9162 119.501 11.0362 118.685 11.0362ZM143.32 8.66023C143.944 8.97223 144.304 9.46423 144.4 10.1362C144.52 10.8082 144.352 11.4202 143.896 11.9722C143.584 12.4042 143.176 12.6442 142.672 12.6922C142.192 12.7402 141.7 12.6442 141.196 12.4042C140.62 12.1402 140.008 11.9362 139.36 11.7922C138.736 11.6482 138.076 11.5762 137.38 11.5762C136.084 11.5762 134.92 11.7802 133.888 12.1882C132.88 12.5962 132.016 13.1842 131.296 13.9522C130.576 14.6962 130.024 15.5842 129.64 16.6162C129.28 17.6482 129.1 18.7882 129.1 20.0362C129.1 21.5002 129.304 22.7722 129.712 23.8522C130.144 24.9322 130.732 25.8322 131.476 26.5522C132.22 27.2722 133.096 27.8122 134.104 28.1722C135.112 28.5082 136.204 28.6762 137.38 28.6762C138.028 28.6762 138.676 28.6162 139.324 28.4962C139.972 28.3762 140.596 28.1602 141.196 27.8482C141.7 27.6082 142.192 27.5242 142.672 27.5962C143.176 27.6682 143.596 27.9202 143.932 28.3522C144.412 28.9522 144.58 29.5762 144.436 30.2242C144.316 30.8482 143.956 31.3042 143.356 31.5922C142.732 31.9042 142.084 32.1682 141.412 32.3842C140.764 32.5762 140.104 32.7202 139.432 32.8162C138.76 32.9362 138.076 32.9962 137.38 32.9962C135.652 32.9962 134.008 32.7202 132.448 32.1682C130.912 31.6162 129.532 30.8002 128.308 29.7202C127.108 28.6402 126.16 27.2962 125.464 25.6882C124.768 24.0562 124.42 22.1722 124.42 20.0362C124.42 18.1882 124.732 16.4842 125.356 14.9242C126.004 13.3642 126.904 12.0202 128.056 10.8922C129.232 9.74023 130.612 8.85223 132.196 8.22823C133.78 7.58023 135.508 7.25623 137.38 7.25623C138.436 7.25623 139.468 7.37623 140.476 7.61623C141.484 7.85623 142.432 8.20423 143.32 8.66023ZM166.575 23.0242C166.575 24.9922 166.131 26.7322 165.243 28.2442C164.379 29.7322 163.203 30.8962 161.715 31.7362C160.251 32.5762 158.607 32.9962 156.783 32.9962C154.959 32.9962 153.303 32.5762 151.815 31.7362C150.351 30.8962 149.175 29.7322 148.287 28.2442C147.423 26.7322 146.991 24.9922 146.991 23.0242C146.991 21.0562 147.423 19.3282 148.287 17.8402C149.175 16.3282 150.351 15.1522 151.815 14.3122C153.303 13.4482 154.959 13.0162 156.783 13.0162C158.607 13.0162 160.251 13.4482 161.715 14.3122C163.203 15.1522 164.379 16.3282 165.243 17.8402C166.131 19.3282 166.575 21.0562 166.575 23.0242ZM162.255 23.0242C162.255 21.8002 162.003 20.7442 161.499 19.8562C161.019 18.9442 160.359 18.2362 159.519 17.7322C158.703 17.2282 157.791 16.9762 156.783 16.9762C155.775 16.9762 154.851 17.2282 154.011 17.7322C153.195 18.2362 152.535 18.9442 152.031 19.8562C151.551 20.7442 151.311 21.8002 151.311 23.0242C151.311 24.2242 151.551 25.2802 152.031 26.1922C152.535 27.0802 153.195 27.7762 154.011 28.2802C154.851 28.7842 155.775 29.0362 156.783 29.0362C157.791 29.0362 158.703 28.7842 159.519 28.2802C160.359 27.7762 161.019 27.0802 161.499 26.1922C162.003 25.2802 162.255 24.2242 162.255 23.0242ZM171.044 13.3762C171.5 13.3762 171.92 13.4962 172.304 13.7362C172.688 13.9522 172.976 14.2882 173.168 14.7442L178.46 26.8402L177.668 27.2002L183.068 14.7802C183.476 13.8202 184.112 13.3642 184.976 13.4122C185.576 13.4122 186.056 13.6042 186.416 13.9882C186.8 14.3482 186.992 14.8042 186.992 15.3562C186.992 15.5242 186.956 15.7042 186.884 15.8962C186.836 16.0882 186.776 16.2682 186.704 16.4362L179.972 31.2682C179.588 32.1322 178.976 32.5882 178.136 32.6362C177.68 32.7082 177.236 32.6242 176.804 32.3842C176.396 32.1442 176.084 31.7722 175.868 31.2682L169.172 16.4362C169.124 16.3162 169.064 16.1602 168.992 15.9682C168.944 15.7762 168.92 15.5482 168.92 15.2842C168.92 14.8522 169.112 14.4322 169.496 14.0242C169.88 13.5922 170.396 13.3762 171.044 13.3762ZM199.291 32.9962C197.251 32.9962 195.475 32.5762 193.963 31.7362C192.475 30.8722 191.323 29.7082 190.507 28.2442C189.715 26.7802 189.319 25.1242 189.319 23.2762C189.319 21.1162 189.751 19.2802 190.615 17.7682C191.503 16.2322 192.655 15.0562 194.071 14.2402C195.487 13.4242 196.987 13.0162 198.571 13.0162C199.795 13.0162 200.947 13.2682 202.027 13.7722C203.131 14.2762 204.103 14.9722 204.943 15.8602C205.783 16.7242 206.443 17.7322 206.923 18.8842C207.427 20.0362 207.679 21.2602 207.679 22.5562C207.655 23.1322 207.427 23.6002 206.995 23.9602C206.563 24.3202 206.059 24.5002 205.483 24.5002H191.731L190.651 20.9002H203.863L203.071 21.6202V20.6482C203.023 19.9522 202.771 19.3282 202.315 18.7762C201.883 18.2242 201.331 17.7922 200.659 17.4802C200.011 17.1442 199.315 16.9762 198.571 16.9762C197.851 16.9762 197.179 17.0722 196.555 17.2642C195.931 17.4562 195.391 17.7802 194.935 18.2362C194.479 18.6922 194.119 19.3042 193.855 20.0722C193.591 20.8402 193.459 21.8122 193.459 22.9882C193.459 24.2842 193.723 25.3882 194.251 26.3002C194.803 27.1882 195.499 27.8722 196.339 28.3522C197.203 28.8082 198.115 29.0362 199.075 29.0362C199.963 29.0362 200.671 28.9642 201.199 28.8202C201.727 28.6762 202.147 28.5082 202.459 28.3162C202.795 28.1002 203.095 27.9202 203.359 27.7762C203.791 27.5602 204.199 27.4522 204.583 27.4522C205.111 27.4522 205.543 27.6322 205.879 27.9922C206.239 28.3522 206.419 28.7722 206.419 29.2522C206.419 29.9002 206.083 30.4882 205.411 31.0162C204.787 31.5442 203.911 32.0122 202.783 32.4202C201.655 32.8042 200.491 32.9962 199.291 32.9962Z" fill="#FDFDFD"/>
<path d="M33.6 0H8.4C3.76081 0 0 3.76081 0 8.4V33.6C0 38.2392 3.76081 42 8.4 42H33.6C38.2392 42 42 38.2392 42 33.6V8.4C42 3.76081 38.2392 0 33.6 0Z" fill="url(#paint0_linear_14_7397)"/>
<path d="M25.2707 21.0639C25.2707 15.7954 24.0325 13.5098 20.6053 13.5098H16.6699V28.4903H20.7019C24.0644 28.4903 25.2707 26.2685 25.2707 21.0639Z" fill="url(#paint1_linear_14_7397)"/>
<path d="M42.0014 24.5441V33.6001C42.0014 35.8279 41.1164 37.9645 39.5411 39.5398C37.9658 41.1151 35.8292 42.0001 33.6014 42.0001H19.7708L10.9004 33.1297C10.9726 33.1809 11.0894 33.2036 11.2734 33.2196C14.3814 33.4716 17.4625 33.6001 20.6998 33.6001C28.317 33.6001 31.2049 29.8865 31.2049 21.0639C31.2049 16.4112 30.4186 13.1679 28.5858 11.1284L42.0014 24.5441Z" fill="url(#paint2_linear_14_7397)"/>
<path d="M31.2019 21.0637C31.2019 29.8837 28.314 33.5999 20.6968 33.5999C17.4595 33.5999 14.3809 33.4731 11.2704 33.2194C10.8898 33.1875 10.7949 33.1236 10.7949 32.838V9.22478C10.7949 8.9081 10.8898 8.81234 11.2704 8.78042C14.3784 8.52842 17.4595 8.3999 20.6968 8.3999C28.314 8.3999 31.2019 12.1446 31.2019 21.0637ZM16.6699 13.5096V28.4902H20.7019C24.0619 28.4902 25.2723 26.2684 25.2723 21.0637C25.2723 15.7953 24.0342 13.5096 20.607 13.5096H16.6699Z" fill="#FDFDFD"/>
<defs>
<linearGradient id="paint0_linear_14_7397" x1="0" y1="21" x2="42" y2="21" gradientUnits="userSpaceOnUse">
<stop stop-color="#2F057B"/>
<stop offset="1" stop-color="#6441C1"/>
</linearGradient>
<linearGradient id="paint1_linear_14_7397" x1="14.4044" y1="15.7752" x2="24.8843" y2="26.2551" gradientUnits="userSpaceOnUse">
<stop stop-opacity="0.25"/>
<stop offset="1" stop-opacity="0"/>
</linearGradient>
<linearGradient id="paint2_linear_14_7397" x1="18.6637" y1="21.0497" x2="38.3474" y2="40.7334" gradientUnits="userSpaceOnUse">
<stop stop-opacity="0.25"/>
<stop offset="1" stop-opacity="0"/>
</linearGradient>
</defs>
</svg>
