<svg width="240" height="240" viewBox="0 0 240 240" fill="none" xmlns="http://www.w3.org/2000/svg">
<circle cx="120" cy="120" r="120" fill="#FDFDFD"/>
<path d="M155.8 59H83.2C69.8347 59 59 69.8347 59 83.2V155.8C59 169.165 69.8347 180 83.2 180H155.8C169.165 180 180 169.165 180 155.8V83.2C180 69.8347 169.165 59 155.8 59Z" fill="#02DFBF"/>
<path d="M131.799 119.685C131.799 104.507 128.232 97.9219 118.358 97.9219H107.02V141.08H118.636C128.324 141.08 131.799 134.679 131.799 119.685Z" fill="url(#paint0_linear_115_64)"/>
<path d="M180 129.71V155.8C180 162.219 177.45 168.374 172.912 172.912C168.374 177.451 162.218 180 155.8 180H115.955L90.3994 154.445C90.6075 154.593 90.9439 154.658 91.4739 154.704C100.428 155.43 109.304 155.8 118.631 155.8C140.576 155.8 148.896 145.102 148.896 119.684C148.896 106.28 146.631 96.9363 141.35 91.0605L180 129.71Z" fill="url(#paint1_linear_115_64)"/>
<path d="M148.895 119.683C148.895 145.093 140.576 155.799 118.631 155.799C109.304 155.799 100.435 155.434 91.4737 154.703C90.3775 154.611 90.104 154.427 90.104 153.604V85.5757C90.104 84.6633 90.3775 84.3874 91.4737 84.2955C100.428 83.5695 109.304 83.1992 118.631 83.1992C140.576 83.1992 148.895 93.9876 148.895 119.683ZM107.029 97.9201V141.078H118.645C128.325 141.078 131.813 134.677 131.813 119.683C131.813 104.505 128.246 97.9201 118.372 97.9201H107.029Z" fill="#FDFDFD"/>
<defs>
<linearGradient id="paint0_linear_115_64" x1="100.494" y1="104.449" x2="130.685" y2="134.641" gradientUnits="userSpaceOnUse">
<stop stop-opacity="0.25"/>
<stop offset="1" stop-opacity="0"/>
</linearGradient>
<linearGradient id="paint1_linear_115_64" x1="112.765" y1="119.643" x2="169.473" y2="176.351" gradientUnits="userSpaceOnUse">
<stop stop-opacity="0.25"/>
<stop offset="1" stop-opacity="0"/>
</linearGradient>
</defs>
</svg>
