<svg width="235" height="47" viewBox="0 0 235 47" fill="none" xmlns="http://www.w3.org/2000/svg">
<path d="M67.04 37V31.8373H74.6773C76.6116 31.8373 78.304 31.4391 79.7547 30.6427C81.2053 29.8178 82.3289 28.6658 83.1253 27.1867C83.9502 25.7076 84.3627 23.9582 84.3627 21.9387C84.3627 19.976 83.9502 18.2693 83.1253 16.8187C82.3004 15.3396 81.1627 14.2018 79.712 13.4053C78.2613 12.5804 76.5831 12.168 74.6773 12.168H66.912V7.00533H74.7627C76.9813 7.00533 79.0293 7.37511 80.9067 8.11466C82.8124 8.85422 84.4622 9.90666 85.856 11.272C87.2782 12.6089 88.3733 14.1876 89.1413 16.008C89.9378 17.8284 90.336 19.8196 90.336 21.9813C90.336 24.1431 89.9378 26.1484 89.1413 27.9973C88.3733 29.8178 87.2924 31.4107 85.8987 32.776C84.5049 34.1129 82.8551 35.1511 80.9493 35.8907C79.072 36.6302 77.0382 37 74.848 37H67.04ZM63.072 37V7.00533H68.8747V37H63.072ZM94.3497 37V16.392H99.9817V37H94.3497ZM97.1657 13.064C96.2554 13.064 95.5017 12.7653 94.9043 12.168C94.307 11.5422 94.0083 10.7742 94.0083 9.864C94.0083 8.98222 94.307 8.22844 94.9043 7.60267C95.5017 6.97689 96.2554 6.664 97.1657 6.664C98.1043 6.664 98.8581 6.97689 99.427 7.60267C100.024 8.22844 100.323 8.98222 100.323 9.864C100.323 10.7742 100.024 11.5422 99.427 12.168C98.8581 12.7653 98.1043 13.064 97.1657 13.064ZM113.552 46.1307C111.361 46.1307 109.427 45.7324 107.749 44.936C106.071 44.168 104.734 43.0729 103.738 41.6507L107.28 38.1093C108.076 39.048 108.958 39.7591 109.925 40.2427C110.921 40.7547 112.115 41.0107 113.509 41.0107C115.244 41.0107 116.609 40.5698 117.605 39.688C118.629 38.8062 119.141 37.5831 119.141 36.0187V30.856L120.08 26.3333L119.184 21.8107V16.392H124.73V35.9333C124.73 37.9813 124.247 39.7591 123.28 41.2667C122.341 42.8027 121.033 43.9973 119.354 44.8507C117.676 45.704 115.742 46.1307 113.552 46.1307ZM113.296 36.4453C111.447 36.4453 109.783 36.0044 108.304 35.1227C106.825 34.2124 105.658 32.9751 104.805 31.4107C103.98 29.8462 103.568 28.0969 103.568 26.1627C103.568 24.2284 103.98 22.4933 104.805 20.9573C105.658 19.4213 106.825 18.2124 108.304 17.3307C109.783 16.4204 111.447 15.9653 113.296 15.9653C114.832 15.9653 116.183 16.264 117.349 16.8613C118.544 17.4587 119.482 18.2836 120.165 19.336C120.848 20.36 121.217 21.5689 121.274 22.9627V29.448C121.217 30.8133 120.833 32.0364 120.122 33.1173C119.44 34.1698 118.501 34.9947 117.306 35.592C116.14 36.1609 114.803 36.4453 113.296 36.4453ZM114.405 31.368C115.429 31.368 116.311 31.1547 117.05 30.728C117.818 30.2729 118.416 29.6613 118.842 28.8933C119.269 28.0969 119.482 27.2009 119.482 26.2053C119.482 25.1813 119.269 24.2853 118.842 23.5173C118.416 22.7493 117.818 22.152 117.05 21.7253C116.311 21.2702 115.429 21.0427 114.405 21.0427C113.381 21.0427 112.485 21.2702 111.717 21.7253C110.949 22.152 110.352 22.7636 109.925 23.56C109.498 24.328 109.285 25.2098 109.285 26.2053C109.285 27.1724 109.498 28.0542 109.925 28.8507C110.352 29.6187 110.949 30.2302 111.717 30.6853C112.485 31.1404 113.381 31.368 114.405 31.368ZM129.641 37V16.392H135.273V37H129.641ZM132.457 13.064C131.547 13.064 130.793 12.7653 130.196 12.168C129.599 11.5422 129.3 10.7742 129.3 9.864C129.3 8.98222 129.599 8.22844 130.196 7.60267C130.793 6.97689 131.547 6.664 132.457 6.664C133.396 6.664 134.15 6.97689 134.719 7.60267C135.316 8.22844 135.615 8.98222 135.615 9.864C135.615 10.7742 135.316 11.5422 134.719 12.168C134.15 12.7653 133.396 13.064 132.457 13.064ZM154.731 37.4267C152.541 37.4267 150.507 37.0427 148.63 36.2747C146.753 35.4782 145.103 34.3831 143.681 32.9893C142.287 31.5671 141.206 29.9173 140.438 28.04C139.698 26.1627 139.329 24.1431 139.329 21.9813C139.329 19.8196 139.698 17.8 140.438 15.9227C141.206 14.0453 142.287 12.4098 143.681 11.016C145.103 9.62222 146.738 8.52711 148.587 7.73066C150.465 6.93422 152.513 6.536 154.731 6.536C157.121 6.536 159.226 6.93422 161.046 7.73066C162.866 8.49866 164.474 9.56533 165.867 10.9307L161.942 14.856C161.117 13.9458 160.107 13.2347 158.913 12.7227C157.718 12.2107 156.324 11.9547 154.731 11.9547C153.338 11.9547 152.058 12.1964 150.891 12.68C149.754 13.1351 148.758 13.8178 147.905 14.728C147.051 15.6098 146.397 16.6764 145.942 17.928C145.487 19.1511 145.259 20.5022 145.259 21.9813C145.259 23.4889 145.487 24.8542 145.942 26.0773C146.397 27.3004 147.051 28.3671 147.905 29.2773C148.758 30.1591 149.754 30.8418 150.891 31.3253C152.058 31.8089 153.338 32.0507 154.731 32.0507C156.41 32.0507 157.846 31.7947 159.041 31.2827C160.264 30.7707 161.288 30.0453 162.113 29.1067L166.038 33.032C164.644 34.4258 163.023 35.5067 161.174 36.2747C159.325 37.0427 157.178 37.4267 154.731 37.4267ZM178.618 37.4267C176.542 37.4267 174.665 36.9573 172.986 36.0187C171.337 35.0516 170.014 33.7573 169.018 32.136C168.051 30.4862 167.568 28.6516 167.568 26.632C167.568 24.6124 168.051 22.8062 169.018 21.2133C169.985 19.592 171.308 18.312 172.986 17.3733C174.665 16.4062 176.528 15.9227 178.576 15.9227C180.681 15.9227 182.558 16.4062 184.208 17.3733C185.886 18.312 187.209 19.592 188.176 21.2133C189.143 22.8062 189.626 24.6124 189.626 26.632C189.626 28.6516 189.143 30.4862 188.176 32.136C187.209 33.7573 185.886 35.0516 184.208 36.0187C182.558 36.9573 180.695 37.4267 178.618 37.4267ZM178.576 32.2213C179.628 32.2213 180.553 31.9938 181.349 31.5387C182.174 31.0551 182.8 30.4009 183.226 29.576C183.681 28.7227 183.909 27.7556 183.909 26.6747C183.909 25.5938 183.681 24.6409 183.226 23.816C182.771 22.9911 182.145 22.3511 181.349 21.896C180.553 21.4124 179.628 21.1707 178.576 21.1707C177.552 21.1707 176.641 21.4124 175.845 21.896C175.049 22.3511 174.423 22.9911 173.968 23.816C173.513 24.6409 173.285 25.5938 173.285 26.6747C173.285 27.7556 173.513 28.7227 173.968 29.576C174.423 30.4009 175.049 31.0551 175.845 31.5387C176.641 31.9938 177.552 32.2213 178.576 32.2213ZM199.298 37L190.21 16.392H196.354L202.882 33.3733H199.853L206.424 16.392H212.354L203.309 37H199.298ZM224.164 37.4267C222.002 37.4267 220.082 36.9716 218.404 36.0613C216.726 35.1227 215.389 33.8427 214.393 32.2213C213.426 30.6 212.943 28.7511 212.943 26.6747C212.943 24.6267 213.412 22.8062 214.351 21.2133C215.318 19.592 216.626 18.312 218.276 17.3733C219.926 16.4062 221.76 15.9227 223.78 15.9227C225.771 15.9227 227.52 16.3778 229.028 17.288C230.564 18.1698 231.759 19.3929 232.612 20.9573C233.494 22.4933 233.935 24.2427 233.935 26.2053C233.935 26.5751 233.906 26.9591 233.849 27.3573C233.821 27.7271 233.75 28.1538 233.636 28.6373L216.313 28.68V24.4987L231.033 24.456L228.772 26.2053C228.715 24.9822 228.488 23.9582 228.089 23.1333C227.72 22.3084 227.165 21.6827 226.425 21.256C225.714 20.8009 224.832 20.5733 223.78 20.5733C222.671 20.5733 221.704 20.8293 220.879 21.3413C220.054 21.8249 219.414 22.5218 218.959 23.432C218.532 24.3138 218.319 25.3662 218.319 26.5893C218.319 27.8409 218.546 28.936 219.001 29.8747C219.485 30.7849 220.168 31.496 221.049 32.008C221.931 32.4916 222.955 32.7333 224.121 32.7333C225.174 32.7333 226.127 32.5627 226.98 32.2213C227.833 31.8516 228.573 31.3111 229.199 30.6L232.484 33.8853C231.488 35.0516 230.265 35.9333 228.815 36.5307C227.392 37.128 225.842 37.4267 224.164 37.4267Z" fill="#FDFDFD"/>
<path d="M35.2 0H8.8C3.93989 0 0 3.93989 0 8.8V35.2C0 40.0601 3.93989 44 8.8 44H35.2C40.0601 44 44 40.0601 44 35.2V8.8C44 3.93989 40.0601 0 35.2 0Z" fill="#FDFDFD"/>
<path d="M26.4722 22.0672C26.4722 16.5478 25.1751 14.1533 21.5847 14.1533H17.4619V29.8472H21.6859C25.2086 29.8472 26.4722 27.5196 26.4722 22.0672Z" fill="url(#paint0_linear_147_499)"/>
<path d="M44 25.7132V35.2005C44 37.5344 43.0728 39.7727 41.4225 41.423C39.7722 43.0733 37.5339 44.0005 35.2 44.0005H20.7108L11.418 34.7076C11.4936 34.7613 11.616 34.7851 11.8087 34.8018C15.0647 35.0658 18.2925 35.2005 21.6841 35.2005C29.6639 35.2005 32.6893 31.31 32.6893 22.0673C32.6893 17.193 31.8657 13.7953 29.9455 11.6587L44 25.7132Z" fill="url(#paint1_linear_147_499)"/>
<path d="M32.6893 22.0667C32.6893 31.3067 29.6638 35.1998 21.684 35.1998C18.2925 35.1998 15.0673 35.0669 11.8086 34.8012C11.41 34.7677 11.3105 34.7008 11.3105 34.4016V9.66396C11.3105 9.3322 11.41 9.23188 11.8086 9.19844C15.0646 8.93444 18.2925 8.7998 21.684 8.7998C29.6638 8.7998 32.6893 12.7228 32.6893 22.0667ZM17.4653 14.1528V29.8468H21.6893C25.2093 29.8468 26.4773 27.5192 26.4773 22.0667C26.4773 16.5473 25.1802 14.1528 21.5898 14.1528H17.4653Z" fill="url(#paint2_linear_147_499)"/>
<defs>
<linearGradient id="paint0_linear_147_499" x1="15.0886" y1="16.5267" x2="26.0674" y2="27.5056" gradientUnits="userSpaceOnUse">
<stop stop-opacity="0.25"/>
<stop offset="1" stop-opacity="0"/>
</linearGradient>
<linearGradient id="paint1_linear_147_499" x1="19.5509" y1="22.0524" x2="40.172" y2="42.6734" gradientUnits="userSpaceOnUse">
<stop stop-opacity="0.25"/>
<stop offset="1" stop-opacity="0"/>
</linearGradient>
<linearGradient id="paint2_linear_147_499" x1="11.3105" y1="21.9998" x2="32.6893" y2="21.9998" gradientUnits="userSpaceOnUse">
<stop stop-color="#2F057B"/>
<stop offset="1" stop-color="#6441C1"/>
</linearGradient>
</defs>
</svg>
