<svg width="424.0400146484375px" height="139.80001220703124px" xmlns="http://www.w3.org/2000/svg" viewBox="37.97999267578126 5.099993896484378 424.0400146484375 139.80001220703124" style="background: rgba(68, 68, 68, 0);" preserveAspectRatio="xMidYMid"><defs><filter id="editing-crystal" x="-100%" y="-100%" width="300%" height="300%"><feMorphology operator="dilate" radius="2" in="SourceGraphic" result="border"></feMorphology><feFlood flood-color="#101418" result="black"></feFlood><feMorphology operator="dilate" radius="2" in="SourceGraphic" result="erode"></feMorphology><feGaussianBlur in="erode" stdDeviation="4" result="blur"></feGaussianBlur><feOffset in="blur" dx="2" dy="2" result="offset"></feOffset><feComposite operator="atop" in="offset" in2="black" result="merge"></feComposite><feComposite operator="in" in="merge" in2="SourceGraphic" result="inner-shadow"></feComposite><feGaussianBlur in="SourceGraphic" stdDeviation="2.5" result="shadow1"></feGaussianBlur><feOffset in="shadow1" dx="0" dy="5" result="shadow"></feOffset><feSpecularLighting in="SourceGraphic" result="specular" surfaceScale="1.5" specularConstant="100" specularExponent="10" lighting-color="#ffffff"><fePointLight x="250" y="-300" z="-400"></fePointLight></feSpecularLighting><feGaussianBlur in="specular" stdDeviation="1" result="specular2"></feGaussianBlur><feComposite operator="in" in="specular2" in2="SourceAlpha" result="specular3"></feComposite><feMerge result="merge"><feMergeNode in="border"></feMergeNode><feMergeNode in="inner-shadow"></feMergeNode><feMergeNode in="specular3"></feMergeNode></feMerge><feComponentTransfer in="merge" result="final"><feFuncA type="linear" slope="0.9" intercept="0"></feFuncA></feComponentTransfer><feMerge><feMergeNode in="shadow"></feMergeNode><feMergeNode in="final"></feMergeNode></feMerge></filter></defs><g filter="url(#editing-crystal)"><g transform="translate(105.16997814178467, 98.04000091552734)"><path d="M38.78 0L34.24-11.78L12.80-11.78L8.26 0L2.62 0L19.78-44.54L27.58-44.54L44.74 0L38.78 0ZM14.66-16.58L32.38-16.58L23.55-39.62L14.66-16.58ZM84.93-44.54L90.56-44.54L90.56 0L84.93 0L60.99-34.37L60.99 0L55.36 0L55.36-44.54L60.99-44.54L84.93-10.18L84.93-44.54ZM123.52 0.77L123.52 0.77Q115.46 0.77 111.01-4.38L111.01-4.38L111.01-4.38Q106.56-9.54 106.56-18.43L106.56-18.43L106.56-44.54L112.19-44.54L112.19-18.62L112.19-18.62Q112.19-12.10 115.10-8.29L115.10-8.29L115.10-8.29Q118.02-4.48 123.52-4.48L123.52-4.48L123.52-4.48Q129.02-4.48 131.94-8.29L131.94-8.29L131.94-8.29Q134.85-12.10 134.85-18.62L134.85-18.62L134.85-44.54L140.48-44.54L140.48-18.43L140.48-18.43Q140.48-9.54 136.03-4.38L136.03-4.38L136.03-4.38Q131.58 0.77 123.52 0.77L123.52 0.77ZM186.05-44.54L191.68-44.54L191.68 0L186.05 0L162.11-34.37L162.11 0L156.48 0L156.48-44.54L162.11-44.54L186.05-10.18L186.05-44.54ZM240 0L233.22 0L224.19-17.47L223.55-17.47L213.31-17.47L213.31 0L207.68 0L207.68-44.54L222.78-44.54L222.78-44.54Q230.78-44.54 234.69-41.18L234.69-41.18L234.69-41.18Q238.59-37.82 238.59-31.36L238.59-31.36L238.59-31.36Q238.59-26.56 236.48-23.23L236.48-23.23L236.48-23.23Q234.37-19.90 230.27-18.50L230.27-18.50L240 0ZM222.85-22.78L222.85-22.78Q227.84-22.78 230.18-24.74L230.18-24.74L230.18-24.74Q232.51-26.69 232.51-31.36L232.51-31.36L232.51-31.36Q232.51-35.65 230.18-37.41L230.18-37.41L230.18-37.41Q227.84-39.17 222.78-39.17L222.78-39.17L213.31-39.17L213.31-22.78L222.85-22.78ZM250.94-22.21L250.94-22.21Q250.94-29.12 253.38-34.34L253.38-34.34L253.38-34.34Q255.81-39.55 260.58-42.43L260.58-42.43L260.58-42.43Q265.34-45.31 272.06-45.31L272.06-45.31L272.06-45.31Q275.90-45.31 279.30-44.38L279.30-44.38L279.30-44.38Q282.69-43.46 285.31-41.86L285.31-41.86L285.25-35.52L284.99-35.52L284.99-35.52Q282.50-37.70 279.07-38.94L279.07-38.94L279.07-38.94Q275.65-40.19 271.87-40.19L271.87-40.19L271.87-40.19Q264.38-40.19 260.70-35.36L260.70-35.36L260.70-35.36Q257.02-30.53 257.02-22.21L257.02-22.21L257.02-22.21Q257.02-13.95 260.64-9.15L260.64-9.15L260.64-9.15Q264.26-4.35 271.55-4.35L271.55-4.35L271.55-4.35Q274.56-4.35 277.06-5.15L277.06-5.15L277.06-5.15Q279.55-5.95 281.41-7.42L281.41-7.42L281.41-16.96L272-16.96L272-21.89L287.04-21.89L287.04-4.48L287.04-4.48Q283.07-1.86 279.52-0.54L279.52-0.54L279.52-0.54Q275.97 0.77 271.49 0.77L271.49 0.77L271.49 0.77Q264.96 0.77 260.32-2.11L260.32-2.11L260.32-2.11Q255.68-4.99 253.31-10.18L253.31-10.18L253.31-10.18Q250.94-15.36 250.94-22.21L250.94-22.21Z" fill="#000000" stroke="#101418" stroke-width="1.5"></path></g></g><style>text {
  font-size: 64px;
  font-family: Arial Black;
  dominant-baseline: central;
  text-anchor: middle;
}</style></svg>